<svg height="512" viewBox="0 0 128 128" width="512" xmlns="http://www.w3.org/2000/svg"><g><g><path d="m91.833 28.9c-12.666-6.385-48.083-8.541-55.833-1.733a63.783 63.783 0 0 1 11.542 3.041c-13.125 4-27.48 13.792-32.98 21.792 5.875-1.437 8.938-.933 8.938-.933-7.083 6.75-11.667 20.583-11.542 28.583 1-2.75 7.292-7.983 7.292-7.983 1.75 24.293 11.643 20.568 15.227 46.802z" fill="#7984eb"/><path d="m109.51 6.5-6.16 15.29-1.33 3.29-2.82 6.99-1.32 3.29-8.84 21.93-21.08-15.12 17.94-15.4 2.69-2.31 5.72-4.91 2.69-2.31z" fill="#6169bc"/><path d="m35.25 121.5h68.558c0-18.75-19.058-33-21.308-42 6.5 4.5 22.909 11.532 27.833 7 1.811-1.666 11.084-8.167-6.666-24.667-4.334-28.333-29.245-29.943-29.245-29.943-.25-6.25-11.172-16.265-11.172-16.265-5.75 7-6.25 17.125-6.25 19.25-10.875 4.625-37 29.125-21.75 86.625z" fill="#eaeaf0"/></g><g fill="#0d0614"><path d="m102.76 113.616a1.749 1.749 0 0 0 -1.339 2.081 27.931 27.931 0 0 1 .579 4.053h-65.4q-1.623-6.321-2.619-12.333v-.015c-2.212-13.238-2.192-25.329.089-36.069a1.75 1.75 0 0 0 -3.424-.727 91.832 91.832 0 0 0 -1.546 25.318q-.641-1.133-1.279-2.223c-3.2-5.494-5.967-10.238-6.826-22.157a1.75 1.75 0 0 0 -2.864-1.22c-.548.456-2.19 1.848-3.845 3.506 1.431-7.512 5.386-16.692 10.422-21.493a1.75 1.75 0 0 0 -.92-2.993 19.184 19.184 0 0 0 -4.839.076c6.677-7 18.668-14.356 29.1-17.536a1.75 1.75 0 0 0 .1-3.313c-.18-.067-3.177-1.182-6.8-2.107a44.57 44.57 0 0 1 8.858-1.47 1.75 1.75 0 0 0 -.278-3.488c-7.4.589-12.479 2.053-15.093 4.349a1.75 1.75 0 0 0 .926 3.05 46.225 46.225 0 0 1 6.306 1.381c-11.704 4.681-23.768 13.186-28.951 20.723a1.75 1.75 0 0 0 1.859 2.691 35.117 35.117 0 0 1 4.59-.827c-5.766 7.533-9.476 19.37-9.356 26.806a1.75 1.75 0 0 0 3.394.569c.4-1.091 2.285-3.135 4.224-4.97 1.192 10.274 4.006 15.1 6.97 20.186a52.475 52.475 0 0 1 5.746 12.636q1.132 6.744 3.015 13.852a1.748 1.748 0 0 0 1.691 1.3h68.558a1.75 1.75 0 0 0 1.75-1.75 30.954 30.954 0 0 0 -.717-6.546 1.749 1.749 0 0 0 -2.081-1.34z"/><path d="m105.3 60.966a38.121 38.121 0 0 0 -8.257-18.839l14.09-34.973a1.75 1.75 0 0 0 -2.763-1.982l-22.8 19.57a94.316 94.316 0 0 0 -14.028-2.649 65.872 65.872 0 0 0 -7.11-7.758 1.75 1.75 0 0 0 -2.536.18c-5.523 6.723-6.46 15.913-6.617 19.223-6.779 3.324-16.133 12.034-21.648 26.627a1.75 1.75 0 0 0 3.269 1.235c5.412-14.319 14.577-22.48 20.781-25.119a1.748 1.748 0 0 0 1.065-1.61c0-.418.058-9.656 4.721-16.613a61.914 61.914 0 0 1 5.733 6.542l.04.054c1.879 2.533 3.355 5.139 3.434 7.11a1.754 1.754 0 0 0 1.633 1.676 24.482 24.482 0 0 1 3.944.691 1.753 1.753 0 0 0 .552.144 30.84 30.84 0 0 1 14.772 8.9 1.713 1.713 0 0 0 .374.406c3.653 4.169 6.722 10.044 7.988 18.32a1.757 1.757 0 0 0 .539 1.017c6.7 6.225 10.2 11.747 10.14 15.968a7.69 7.69 0 0 1 -3.127 5.826c-.13.113-.245.215-.341.3-3.571 3.288-18.294-2.058-25.652-7.15a1.749 1.749 0 0 0 -2.696 1.863c.9 3.612 4.039 7.712 7.67 12.458 1.263 1.652 2.571 3.36 3.868 5.155a1.75 1.75 0 1 0 2.836-2.051c-1.324-1.833-2.647-3.56-3.925-5.231-1.735-2.269-3.35-4.38-4.611-6.29 7.92 4.105 20 8.315 24.877 3.822l.276-.245a11.092 11.092 0 0 0 4.321-8.407c.081-5.21-3.556-11.321-10.812-18.17zm-9.567-40.335 4.807 3.453-2.8 6.938-7.683-5.522zm6.153.112-3.42-2.457 6.74-5.785zm-27.742 5.221c2.93.426 5.692.947 8.2 1.551l-3.873 3.324c-1-.243-1.85-.406-2.5-.511a16.3 16.3 0 0 0 -1.827-4.364zm8.29 6.083 4.889-4.2 9.077 6.518-2 4.969a35.2 35.2 0 0 0 -11.966-7.287z"/><path d="m100.539 109.474a1.731 1.731 0 0 0 .731-.161 1.75 1.75 0 0 0 .858-2.321c-.651-1.415-1.409-2.874-2.254-4.338a1.749 1.749 0 0 0 -3.031 1.748c.791 1.372 1.5 2.736 2.1 4.053a1.749 1.749 0 0 0 1.596 1.019z"/><path d="m37.529 76.011a1.759 1.759 0 0 0 -1.961 1.51 93.309 93.309 0 0 0 -.351 19.534 1.75 1.75 0 0 0 1.742 1.608q.072 0 .144-.006a1.75 1.75 0 0 0 1.6-1.886 89.848 89.848 0 0 1 .334-18.8 1.75 1.75 0 0 0 -1.508-1.96z"/><path d="m88.553 56.788a1.6 1.6 0 0 0 .182.01 1.75 1.75 0 0 0 .179-3.49 18.03 18.03 0 0 1 -11.263-6.508 1.751 1.751 0 1 0 -2.781 2.127c2.577 3.373 7.958 7.265 13.683 7.861z"/></g></g></svg>